<svg xmlns="http://www.w3.org/2000/svg" viewBox="0 0 434.92 77.11"><defs><style>.cls-1{fill:#231f20;}</style></defs><title>Asset 2</title><g id="Layer_2" data-name="Layer 2"><g id="artwork"><path class="cls-1" d="M41.13,48.69V40.87A12.48,12.48,0,0,1,53.6,28.4h.2V23.25h-.2a17.4,17.4,0,0,0-12.47,5.21V12.84H36V28.46a17.4,17.4,0,0,0-12.47-5.21h-.2V28.4h.2A12.48,12.48,0,0,1,36,40.87v7.82a25.93,25.93,0,0,0-20.7-10.4h-.2v5.16h.2A20.72,20.72,0,0,1,36,64.15v.2h5.15v-.2a20.72,20.72,0,0,1,20.7-20.7H62V38.29h-.2A25.92,25.92,0,0,0,41.13,48.69Z"/><path class="cls-1" d="M38.55,0A38.56,38.56,0,1,0,77.11,38.56,38.6,38.6,0,0,0,38.55,0ZM71.86,38.56A33.31,33.31,0,1,1,38.55,5.25,33.34,33.34,0,0,1,71.86,38.56Z"/><path class="cls-1" d="M121,37l-8.47-2.9-.34-.12c-4.55-1.61-8.85-3.13-8.85-8,0-5.6,4.71-8.94,12.6-8.94a39.48,39.48,0,0,1,13.49,2.69L130,20l.69-4.65.06-.41-.39-.16A40.74,40.74,0,0,0,115.81,12c-11.39,0-18.19,5.28-18.19,14.13,0,7.53,6.13,10.69,12.77,13l9,3.06c6.18,2.16,8.59,4.54,8.59,8.48,0,5.86-5,9.35-13.37,9.35A38,38,0,0,1,99,56.23l-.67-.32-.65,5.57.37.16a45.78,45.78,0,0,0,16.64,3.5c11.75,0,18.76-5.34,18.76-14.28C133.42,44,129.93,40.13,121,37Z"/><path class="cls-1" d="M182.35,45.41c0,8.67-6.81,14.5-16.95,14.5s-16.88-5.69-16.88-14.5V12.71H143v32.7c0,5.86,2.08,10.82,6,14.32s9.64,5.41,16.41,5.41,12.36-1.89,16.39-5.48a18.46,18.46,0,0,0,6.1-14.25V12.71h-5.54Z"/><polygon class="cls-1" points="227.43 39.22 205.65 12.8 205.57 12.71 200.17 12.71 200.17 64.4 205.71 64.4 205.71 21.57 227.43 47.91 249.14 21.57 249.14 64.4 254.68 64.4 254.68 12.71 249.28 12.71 227.43 39.22"/><polygon class="cls-1" points="282.68 39.22 260.46 12.27 260.46 20.96 282.68 47.91 304.4 21.57 304.4 64.4 309.93 64.4 309.93 12.71 304.53 12.71 282.68 39.22"/><path class="cls-1" d="M417.82,30.54c0-5.69-1.88-10.35-5.45-13.49-3.22-2.84-7.63-4.34-12.75-4.34H377.28V64.4h5.53V48.14h17.51L413.19,64.2l.15.2h7.23L406.3,47.06A16.9,16.9,0,0,0,417.82,30.54ZM399.62,43H382.81V17.87h16.81c6.12,0,12.67,3.33,12.67,12.67C412.29,38.71,405.91,43,399.62,43Z"/><rect class="cls-1" x="429.38" y="12.71" width="5.53" height="51.69"/><path class="cls-1" d="M347,12.71H340.4L318.9,64.4h5.84l5.34-12.94,1.37-3.3h24.44l6.73,16.24h5.69L347.1,13ZM333.6,43l10.06-24.33L353.75,43Z"/></g></g></svg>